<?xml version="1.0" encoding="utf-8"?>
<!-- Generator: Adobe Illustrator 21.1.0, SVG Export Plug-In . SVG Version: 6.00 Build 0)  -->
<svg version="1.1" id="Layer_1" xmlns="http://www.w3.org/2000/svg" xmlns:xlink="http://www.w3.org/1999/xlink" x="0px" y="0px"
	 viewBox="0 0 359 120" style="enable-background:new 0 0 359 120;" xml:space="preserve">
<style type="text/css">
	.st0{enable-background:new    ;}
	.st1{fill:#FFFFFF;}
	.st2{fill:#A9A9A9;}
	.st3{fill:none;stroke:#D6D6D6;stroke-width:3.1003;}
	.st4{fill:#D6D6D6;}
	.st5{fill:none;stroke:#FF4357;stroke-width:4.6504;}
	.st6{fill:#FF4357;}
	.st7{fill:#fed28d;}
	.st8{fill:none;}
</style>
<g class="st0">
	<path class="st1" d="M149.1,52V35.8h2.3l8.1,12.5V35.8h2V52h-2.3l-8.2-12.5V52H149.1z"/>
	<path class="st1" d="M174.7,51.6c-1.5,0.4-2.7,0.7-3.8,0.7c-1.9,0-3.4-0.6-4.4-1.9c-1.1-1.2-1.6-2.7-1.6-4.4c0-1.1,0.2-2.2,0.7-3.2
		c0.5-1,1.1-1.8,1.9-2.2c0.8-0.5,1.7-0.7,2.7-0.7c1.4,0,2.5,0.5,3.3,1.5c0.8,1,1.2,2.5,1.2,4.4l0,0.7H167c0.1,1.1,0.4,1.9,0.7,2.4
		c0.3,0.6,0.8,1,1.4,1.3c0.6,0.3,1.3,0.5,2.2,0.5c0.4,0,0.9,0,1.3-0.1c0.4-0.1,1.1-0.3,2-0.6V51.6z M167.1,44.8h5.4
		c0-1.2-0.2-2-0.7-2.6c-0.5-0.5-1.1-0.8-1.8-0.8c-0.9,0-1.5,0.3-2,0.8S167.2,43.6,167.1,44.8z"/>
	<path class="st1" d="M183.6,52c-0.7,0.2-1.2,0.3-1.7,0.3c-1.1,0-1.9-0.3-2.5-0.9c-0.6-0.6-0.9-1.5-0.9-2.6v-7h-1.5v-1.6h1.5v-2.2
		l2.2-0.2v2.4h3.1v1.6h-3.1v6.6c0,0.8,0.2,1.4,0.5,1.8c0.3,0.4,0.8,0.5,1.5,0.5c0.3,0,0.6,0,1-0.1V52z"/>
	<path class="st1" d="M188.1,52l-3.4-11.9h2.1l2.6,9.2l2.8-9.2h2.2l2.5,9.2l3-9.2h1.9L197.8,52h-2.2l-2.5-9.2l-2.9,9.2H188.1z"/>
	<path class="st1" d="M208.8,52.3c-1.1,0-2.1-0.2-3-0.7c-0.8-0.5-1.5-1.2-2-2.2c-0.5-1-0.7-2.1-0.7-3.3c0-1.2,0.2-2.2,0.7-3.2
		c0.4-1,1.1-1.7,2-2.2c0.9-0.5,1.9-0.8,3.1-0.8c1.1,0,2.1,0.2,3,0.7c0.8,0.5,1.5,1.2,2,2.2c0.5,1,0.7,2.1,0.7,3.3
		c0,1.2-0.2,2.3-0.7,3.2c-0.5,1-1.1,1.7-2,2.2S210,52.3,208.8,52.3z M208.8,50.7c1.1,0,1.9-0.4,2.5-1.2c0.6-0.8,0.9-1.9,0.9-3.4
		c0-1.5-0.3-2.6-0.9-3.4c-0.6-0.8-1.4-1.2-2.5-1.2s-1.9,0.4-2.5,1.2c-0.6,0.8-0.9,1.9-0.9,3.4c0,1.5,0.3,2.6,0.9,3.4
		C206.9,50.2,207.7,50.7,208.8,50.7z"/>
	<path class="st1" d="M217.8,52V40.1h2.2v2.2c0.4-0.8,0.9-1.4,1.6-1.8c0.7-0.4,1.4-0.7,2.1-0.7c0.2,0,0.5,0,0.7,0.1v2
		c-0.4-0.1-0.7-0.2-1-0.2c-0.7,0-1.3,0.2-1.9,0.6c-0.6,0.4-1.1,1-1.6,1.8V52H217.8z"/>
	<path class="st1" d="M227,52V34.7h2.2v11.2l5.1-5.8h2.3l-4.8,5.6l5.8,6.4h-2.8l-5.6-6.1V52H227z"/>
	<path class="st1" d="M249.1,51.6c-1.5,0.4-2.7,0.7-3.8,0.7c-1.9,0-3.4-0.6-4.4-1.9s-1.6-2.7-1.6-4.4c0-1.1,0.2-2.2,0.7-3.2
		s1.1-1.8,1.9-2.2c0.8-0.5,1.7-0.7,2.7-0.7c1.4,0,2.5,0.5,3.3,1.5s1.2,2.5,1.2,4.4l0,0.7h-7.7c0.1,1.1,0.4,1.9,0.7,2.4
		c0.3,0.6,0.8,1,1.4,1.3c0.6,0.3,1.3,0.5,2.2,0.5c0.4,0,0.9,0,1.3-0.1c0.4-0.1,1.1-0.3,2-0.6V51.6z M241.6,44.8h5.4
		c0-1.2-0.2-2-0.7-2.6c-0.5-0.5-1.1-0.8-1.8-0.8c-0.9,0-1.5,0.3-2,0.8S241.7,43.6,241.6,44.8z"/>
	<path class="st1" d="M260.4,52v-2.2c-0.4,0.8-1,1.5-1.6,1.9c-0.7,0.4-1.4,0.6-2.3,0.6c-1.5,0-2.6-0.5-3.4-1.6
		c-0.8-1.1-1.2-2.5-1.2-4.2c0-1.9,0.5-3.5,1.4-4.7c0.9-1.3,2.1-1.9,3.7-1.9c0.5,0,0.9,0.1,1.3,0.2c0.4,0.1,0.8,0.3,1.1,0.5
		c0.3,0.2,0.7,0.5,1.1,1v-6.8h2.2V52H260.4z M260.4,42.9c-0.7-0.7-1.3-1.1-1.8-1.2c-0.4-0.2-0.9-0.2-1.4-0.2c-1.1,0-1.8,0.4-2.3,1.3
		s-0.8,2-0.8,3.4c0,1.3,0.2,2.3,0.7,3.1c0.5,0.7,1.1,1.1,2.1,1.1c0.6,0,1.2-0.2,1.8-0.5c0.6-0.3,1.2-0.8,1.7-1.5V42.9z"/>
	<path class="st1" d="M272.9,51.7v-2.3c1.3,0.6,2.3,1,2.9,1.1s1.2,0.2,1.7,0.2c0.9,0,1.7-0.3,2.2-0.8c0.5-0.5,0.8-1.1,0.8-1.8
		c0-0.5-0.1-1-0.4-1.5c-0.3-0.4-1-1-2.1-1.6l-1.1-0.6c-1.5-0.8-2.5-1.6-3-2.3s-0.8-1.5-0.8-2.3c0-0.8,0.2-1.5,0.6-2.2s1-1.2,1.6-1.6
		c0.7-0.4,1.6-0.6,2.6-0.6c1.3,0,2.6,0.2,4,0.6v2.1c-1.2-0.5-2.1-0.8-2.5-0.9s-0.9-0.1-1.4-0.1c-0.9,0-1.6,0.2-2.1,0.7
		c-0.5,0.5-0.7,1-0.7,1.5c0,0.4,0.1,0.7,0.3,1.1c0.2,0.4,0.5,0.7,0.9,0.9c0.4,0.3,0.9,0.6,1.5,0.9l1.2,0.7c1.5,0.9,2.5,1.6,3,2.3
		c0.5,0.7,0.8,1.5,0.8,2.5c0,1.3-0.5,2.4-1.5,3.3s-2.4,1.4-4.3,1.4c-0.6,0-1.1,0-1.7-0.1C274.9,52.2,274.1,52,272.9,51.7z"/>
	<path class="st1" d="M286.8,56.3l1.9-4.3l-4.6-11.9h2.3l3.4,9l3.6-9h2L289,56.3H286.8z"/>
	<path class="st1" d="M297.4,51.6v-2c1.4,0.7,2.6,1.1,3.7,1.1c0.6,0,1.1-0.2,1.5-0.5c0.4-0.3,0.6-0.8,0.6-1.3c0-0.3-0.1-0.6-0.3-0.9
		c-0.2-0.3-0.7-0.6-1.4-0.9l-1.3-0.5c-1-0.4-1.7-0.9-2.1-1.4c-0.4-0.5-0.7-1.2-0.7-1.9c0-1,0.3-1.8,1-2.4c0.7-0.6,1.7-1,3.1-1
		c0.7,0,1.5,0.1,2.5,0.3l0.5,0.1V42c-1.2-0.4-2.2-0.5-2.9-0.5c-0.7,0-1.2,0.1-1.6,0.5c-0.3,0.3-0.5,0.7-0.5,1.1
		c0,0.3,0.1,0.6,0.4,0.9c0.2,0.3,0.6,0.5,1.2,0.8l1,0.4c1.4,0.6,2.3,1.2,2.7,1.8c0.4,0.6,0.6,1.2,0.6,1.9c0,0.7-0.2,1.3-0.5,1.8
		c-0.4,0.6-0.9,1-1.6,1.3c-0.7,0.3-1.5,0.5-2.3,0.5C300,52.3,298.8,52,297.4,51.6z"/>
	<path class="st1" d="M314.6,52c-0.7,0.2-1.2,0.3-1.7,0.3c-1.1,0-1.9-0.3-2.5-0.9c-0.6-0.6-0.9-1.5-0.9-2.6v-7h-1.5v-1.6h1.5v-2.2
		l2.2-0.2v2.4h3.1v1.6h-3.1v6.6c0,0.8,0.2,1.4,0.5,1.8c0.3,0.4,0.8,0.5,1.5,0.5c0.3,0,0.6,0,1-0.1V52z"/>
	<path class="st1" d="M326.6,51.6c-1.5,0.4-2.7,0.7-3.8,0.7c-1.9,0-3.4-0.6-4.4-1.9s-1.6-2.7-1.6-4.4c0-1.1,0.2-2.2,0.7-3.2
		s1.1-1.8,1.9-2.2c0.8-0.5,1.7-0.7,2.7-0.7c1.4,0,2.5,0.5,3.3,1.5c0.8,1,1.2,2.5,1.2,4.4l0,0.7H319c0.1,1.1,0.4,1.9,0.7,2.4
		c0.3,0.6,0.8,1,1.4,1.3c0.6,0.3,1.3,0.5,2.2,0.5c0.4,0,0.9,0,1.3-0.1c0.4-0.1,1.1-0.3,2-0.6V51.6z M319.1,44.8h5.4
		c0-1.2-0.2-2-0.7-2.6c-0.5-0.5-1.1-0.8-1.8-0.8c-0.9,0-1.5,0.3-2,0.8S319.2,43.6,319.1,44.8z"/>
	<path class="st1" d="M330.2,52V40.1h2.2v2.2c0.4-0.7,1-1.3,1.7-1.8s1.5-0.7,2.4-0.7c0.5,0,1,0.1,1.4,0.3c0.4,0.2,0.7,0.4,1.1,0.7
		c0.3,0.3,0.6,0.8,0.8,1.5c0.4-0.7,1-1.3,1.7-1.8c0.7-0.5,1.5-0.7,2.3-0.7c0.8,0,1.6,0.3,2.3,0.8c0.7,0.5,1,1.4,1,2.7V52h-2.2v-8.3
		c0-0.8-0.2-1.3-0.5-1.6c-0.3-0.3-0.7-0.4-1.1-0.4c-0.5,0-1,0.2-1.6,0.5c-0.6,0.3-1.2,1-1.9,1.9v8h-2.2v-8.3c0-0.8-0.2-1.3-0.5-1.6
		s-0.7-0.4-1.1-0.4c-0.5,0-1,0.2-1.6,0.5c-0.5,0.3-1.2,1-1.9,1.9v8H330.2z"/>
	<path class="st1" d="M350.8,51.6v-2c1.4,0.7,2.6,1.1,3.7,1.1c0.6,0,1.1-0.2,1.5-0.5c0.4-0.3,0.6-0.8,0.6-1.3c0-0.3-0.1-0.6-0.3-0.9
		c-0.2-0.3-0.7-0.6-1.4-0.9l-1.3-0.5c-1-0.4-1.7-0.9-2.1-1.4c-0.4-0.5-0.7-1.2-0.7-1.9c0-1,0.3-1.8,1-2.4c0.7-0.6,1.7-1,3.1-1
		c0.7,0,1.5,0.1,2.5,0.3l0.5,0.1V42c-1.2-0.4-2.2-0.5-2.9-0.5c-0.7,0-1.2,0.1-1.6,0.5s-0.5,0.7-0.5,1.1c0,0.3,0.1,0.6,0.4,0.9
		c0.2,0.3,0.6,0.5,1.2,0.8l1,0.4c1.4,0.6,2.3,1.2,2.7,1.8c0.4,0.6,0.6,1.2,0.6,1.9c0,0.7-0.2,1.3-0.5,1.8c-0.4,0.6-0.9,1-1.6,1.3
		c-0.7,0.3-1.5,0.5-2.3,0.5C353.4,52.3,352.2,52,350.8,51.6z"/>
</g>
<g class="st0">
	<path class="st2" d="M148.7,82V69.1h7.2v1.4h-5.4v4.1h4.5V76h-4.5v4.7h5.8V82H148.7z"/>
	<path class="st2" d="M161.4,82V70.5h-4.6v-1.4h11v1.4h-4.6V82H161.4z"/>
	<path class="st2" d="M169.6,82V69.1h1.8v5.4h6.1v-5.4h1.8V82h-1.8v-6.1h-6.1V82H169.6z"/>
	<path class="st2" d="M187.5,82v-1.5l6.9-10h-6.5v-1.4h8.7v1.4l-6.9,10h6.9V82H187.5z"/>
	<path class="st2" d="M205.1,82v-1.8c-0.4,0.6-0.9,1.1-1.5,1.5c-0.6,0.3-1.2,0.5-1.8,0.5c-0.8,0-1.4-0.3-1.9-0.8
		c-0.5-0.5-0.8-1.2-0.8-2.1v-6.8h1.7v6.2c0,0.7,0.1,1.1,0.2,1.3s0.3,0.4,0.5,0.5s0.4,0.2,0.7,0.2c0.4,0,0.9-0.1,1.4-0.4
		c0.5-0.3,1-0.8,1.6-1.7v-6.1h1.7V82H205.1z M200.5,70.8v-1.5h1.5v1.5H200.5z M203.9,70.8v-1.5h1.5v1.5H203.9z"/>
	<path class="st2" d="M210.3,82v-9.4h1.7v1.8c0.3-0.6,0.7-1.1,1.3-1.5s1.1-0.5,1.7-0.5c0.2,0,0.4,0,0.5,0V74
		c-0.3-0.1-0.6-0.1-0.8-0.1c-0.5,0-1,0.2-1.5,0.5s-0.9,0.8-1.2,1.5V82H210.3z"/>
	<path class="st2" d="M217.5,70.8v-1.7h1.7v1.7H217.5z M217.5,82v-9.4h1.7V82H217.5z"/>
	<path class="st2" d="M229.2,81.7c-1.1,0.3-2,0.5-2.8,0.5c-0.8,0-1.6-0.2-2.3-0.7c-0.7-0.5-1.2-1.1-1.6-1.8
		c-0.4-0.7-0.5-1.6-0.5-2.5c0-1.4,0.4-2.6,1.1-3.5c0.8-0.9,1.9-1.4,3.5-1.4c0.7,0,1.6,0.1,2.5,0.3v1.4c-1-0.3-1.7-0.4-2.3-0.4
		c-1,0-1.7,0.4-2.2,1.1c-0.5,0.7-0.7,1.6-0.7,2.5c0,1.1,0.3,1.9,0.8,2.6c0.5,0.7,1.2,1,2.1,1c0.8,0,1.6-0.2,2.4-0.6V81.7z"/>
	<path class="st2" d="M231.8,82V68.3h1.7v6.1c0.4-0.6,0.9-1.1,1.5-1.5s1.2-0.5,1.8-0.5c0.8,0,1.5,0.3,2,0.8c0.5,0.5,0.7,1.2,0.7,2.1
		V82h-1.7v-6.2c0-0.7-0.1-1.1-0.2-1.3c-0.1-0.2-0.3-0.4-0.5-0.5s-0.4-0.2-0.7-0.2c-0.4,0-0.9,0.1-1.4,0.4c-0.5,0.3-1,0.8-1.6,1.7V82
		H231.8z"/>
</g>
<polyline class="st3" points="58.8,0.4 58.8,16.6 58.8,18.2 "/>
<polygon class="st4" points="52.2,13.4 58.8,26.4 65.3,13.4 58.8,16.6 "/>
<polyline class="st3" points="58.5,119.7 58.5,102.2 58.5,100.6 "/>
<polygon class="st4" points="65,105.4 58.5,92.4 52,105.4 58.5,102.2 "/>
<polyline class="st3" points="-0.4,60 15.7,60 17.3,60 "/>
<polygon class="st4" points="12.4,66.5 25.5,60 12.4,53.5 15.7,60 "/>
<polyline class="st5" points="91.3,60 112.1,60 114.4,60 "/>
<polygon class="st6" points="107.4,69.3 126,60 107.4,50.7 112.1,60 "/>
<rect x="60.2" y="61.4" class="st7" width="27.1" height="27.1"/>
<polyline class="st8" points="363,337 363,60 58,60 58,337 "/>
<rect x="60" y="61" class="st8" width="28" height="28"/>
<rect x="29.8" y="61.4" class="st7" width="27.1" height="27.1"/>
<polyline class="st8" points="302,337 302,60 28,60 28,337 "/>
<g>
	<g>
		<defs>
			<rect id="SVGID_1_" x="28.2" y="64.5" width="30.2" height="20.9"/>
		</defs>
		<clipPath id="SVGID_2_">
			<use xlink:href="#SVGID_1_"  style="overflow:visible;"/>
		</clipPath>
	</g>
</g>
<rect x="29" y="61" class="st8" width="30" height="28"/>
<rect x="29.8" y="30.4" class="st7" width="27.3" height="27.3"/>
<polyline class="st8" points="302,337 302,29 28,29 28,337 "/>
<rect x="29" y="30" class="st8" width="29" height="28"/>
<rect x="60.2" y="30.3" class="st7" width="27.5" height="27.4"/>
<polyline class="st8" points="363,337 363,29 58,29 58,337 "/>
<rect x="60" y="30" class="st8" width="28" height="28"/>
<g class="st0">
	<path class="st2" d="M280.4,81.7v-1.6c1.1,0.6,2.1,0.8,2.9,0.8c0.5,0,0.9-0.1,1.2-0.4c0.3-0.3,0.5-0.6,0.5-1c0-0.2-0.1-0.5-0.2-0.7
		c-0.2-0.2-0.5-0.5-1.1-0.7l-1-0.4c-0.8-0.3-1.3-0.7-1.7-1.1c-0.4-0.4-0.5-0.9-0.5-1.5c0-0.8,0.3-1.4,0.8-1.9
		c0.6-0.5,1.4-0.8,2.5-0.8c0.5,0,1.2,0.1,2,0.2l0.4,0.1v1.4c-1-0.3-1.7-0.4-2.3-0.4c-0.6,0-1,0.1-1.2,0.4c-0.3,0.2-0.4,0.5-0.4,0.8
		c0,0.3,0.1,0.5,0.3,0.7c0.2,0.2,0.5,0.4,1,0.6l0.8,0.3c1.1,0.5,1.8,0.9,2.1,1.4c0.3,0.5,0.5,1,0.5,1.5c0,0.5-0.1,1-0.4,1.4
		c-0.3,0.4-0.7,0.8-1.2,1c-0.5,0.2-1.2,0.4-1.8,0.4C282.4,82.2,281.5,82,280.4,81.7z"/>
	<path class="st2" d="M296.9,81.7c-1.2,0.3-2.2,0.5-3,0.5c-1.5,0-2.7-0.5-3.5-1.5c-0.9-1-1.3-2.2-1.3-3.5c0-0.9,0.2-1.7,0.6-2.5
		s0.9-1.4,1.5-1.8c0.6-0.4,1.3-0.6,2.2-0.6c1.1,0,2,0.4,2.7,1.2c0.7,0.8,1,2,1,3.5l0,0.5h-6.1c0.1,0.8,0.3,1.5,0.5,1.9
		c0.3,0.5,0.6,0.8,1.1,1.1c0.5,0.3,1,0.4,1.7,0.4c0.4,0,0.7,0,1.1-0.1c0.4-0.1,0.9-0.2,1.6-0.5V81.7z M290.9,76.3h4.3
		c0-0.9-0.2-1.6-0.6-2c-0.4-0.4-0.9-0.6-1.5-0.6c-0.7,0-1.2,0.2-1.6,0.7C291.2,74.7,291,75.4,290.9,76.3z"/>
	<path class="st2" d="M299.7,70.8v-1.7h1.7v1.7H299.7z M299.7,82v-9.4h1.7V82H299.7z"/>
	<path class="st2" d="M309.1,82c-0.5,0.1-1,0.2-1.4,0.2c-0.8,0-1.5-0.2-2-0.7c-0.5-0.5-0.7-1.2-0.7-2.1v-5.6h-1.2v-1.3h1.2v-1.7
		l1.7-0.2v1.9h2.5v1.3h-2.5v5.2c0,0.7,0.1,1.1,0.4,1.4s0.7,0.4,1.2,0.4c0.2,0,0.5,0,0.8-0.1V82z"/>
	<path class="st2" d="M317,82v-1.5c0.5-1.2,1.5-2.4,3-3.8l1-0.9c0.7-0.6,1.2-1.2,1.5-1.8c0.3-0.5,0.4-1.1,0.4-1.6
		c0-0.7-0.2-1.3-0.7-1.7c-0.4-0.4-1-0.6-1.8-0.6c-0.3,0-0.6,0-0.9,0.1c-0.3,0.1-0.6,0.2-0.9,0.3c-0.3,0.1-0.8,0.4-1.3,0.7v-1.5
		c1.1-0.5,2.3-0.8,3.4-0.8c1.2,0,2.2,0.3,2.9,1c0.7,0.7,1.1,1.5,1.1,2.5c0,0.7-0.1,1.3-0.4,1.9c-0.3,0.6-1,1.4-2.2,2.4l-0.7,0.6
		c-0.5,0.4-1,0.9-1.5,1.5c-0.5,0.6-0.8,1.2-0.9,1.9h5.6V82H317z"/>
	<path class="st2" d="M332.4,82.3c-1,0-1.8-0.3-2.5-0.9c-0.7-0.6-1.2-1.5-1.5-2.5c-0.3-1.1-0.5-2.2-0.5-3.3c0-1.2,0.2-2.3,0.5-3.3
		s0.8-1.9,1.5-2.5c0.7-0.6,1.5-0.9,2.5-0.9c1,0,1.8,0.3,2.5,0.9c0.7,0.6,1.2,1.5,1.5,2.5s0.5,2.2,0.5,3.3c0,1.2-0.2,2.3-0.5,3.3
		s-0.8,1.9-1.5,2.5C334.2,82,333.4,82.3,332.4,82.3z M332.4,81c0.9,0,1.6-0.5,2-1.5s0.6-2.3,0.6-4s-0.2-3-0.6-4s-1.1-1.5-2-1.5
		c-0.9,0-1.6,0.5-2,1.5c-0.4,1-0.6,2.3-0.6,4s0.2,3,0.6,4C330.8,80.5,331.5,81,332.4,81z"/>
	<path class="st2" d="M342.7,82V70.4h-2v-1.1l3.8-0.3v13H342.7z"/>
	<path class="st2" d="M351.5,82.1v-1.5c0.9,0.3,1.7,0.5,2.4,0.5c0.9,0,1.6-0.3,2.1-0.8c0.4-0.5,0.7-1.2,0.7-2c0-0.9-0.3-1.6-1-2.1
		c-0.6-0.5-1.7-0.8-3-0.8c-0.3,0-0.6,0-0.9,0.1v-6.3h6.5v1.5h-5V74c1.8,0,3.1,0.4,4,1.2c0.9,0.8,1.3,1.8,1.3,3.1
		c0,1.1-0.4,2.1-1.2,2.8c-0.8,0.8-2,1.2-3.6,1.2C353.1,82.3,352.3,82.2,351.5,82.1z"/>
</g>
<g class="st0">
	<path class="st2" d="M251.9,77.3v-0.9h16.2v0.9H251.9z"/>
</g>
<rect class="st8" width="359" height="120"/>
</svg>
